<svg
   version="1.1"
   x="0px"
   y="0px"
   viewBox="0 0 1000 1000"
   enable-background="new 0 0 1000 1000"
   xml:space="preserve"
   id="svg12"
   sodipodi:docname="SteeringWheel.svg"
   inkscape:version="1.1.1 (3bf5ae0d25, 2021-09-20, custom)"
   xmlns:inkscape="http://www.inkscape.org/namespaces/inkscape"
   xmlns:sodipodi="http://sodipodi.sourceforge.net/DTD/sodipodi-0.dtd"
   xmlns="http://www.w3.org/2000/svg"
   xmlns:svg="http://www.w3.org/2000/svg"><defs
   id="defs16" /><sodipodi:namedview
   id="namedview14"
   pagecolor="#ffffff"
   bordercolor="#666666"
   borderopacity="1.0"
   inkscape:pageshadow="2"
   inkscape:pageopacity="0.0"
   inkscape:pagecheckerboard="0"
   showgrid="false"
   inkscape:zoom="0.624"
   inkscape:cx="500"
   inkscape:cy="499.19872"
   inkscape:window-width="1916"
   inkscape:window-height="1032"
   inkscape:window-x="0"
   inkscape:window-y="22"
   inkscape:window-maximized="1"
   inkscape:current-layer="svg12" />
<metadata
   id="metadata2"> Svg Vector Icons : http://www.onlinewebfonts.com/icon </metadata>
<g
   id="g10"><g
     transform="translate(0.000000,511.000000) scale(0.100000,-0.100000)"
     id="g8"><path
       d="M4556.7,4998.9c-963.6-101.2-1847.5-461.4-2608.7-1066.8c-101.2-79.8-294-257-428.3-391.3C799.5,2814.7,334.2,1915.3,157.1,908.8C77.3,455.2,81.2-304,168.8-753.7c114.9-601.6,352.4-1210.9,665.8-1711.2c369.9-587.9,903.3-1135,1487.3-1522.4c251.1-167.5,751.4-420.5,1035.7-523.7c241.4-87.6,640.5-190.8,907.2-233.6c276.4-44.8,926.7-60.3,1220.6-29.2c1635.3,167.4,3099.2,1171.9,3868.2,2647.6c272.5,523.7,436.1,1045.4,521.7,1664.5c40.9,290.1,29.2,963.6-21.4,1275.1c-118.8,749.5-385.5,1425-796.2,2024.6c-208.3,303.7-325.1,443.9-624.9,739.8C7654,4352.6,6735.2,4814,5658.6,4971.7C5419.1,5006.7,4782.6,5022.3,4556.7,4998.9z M5608,4559c770.9-101.2,1508.7-404.9,2151.2-889.7c221.9-167.4,660-611.3,831.3-842.9c597.7-806,893.6-1707.3,893.6-2723.5c0-739.8-140.2-1353-459.4-2005.1C8485.3-3010,7447.7-3874.4,6258.2-4209.2c-1098-307.6-2260.2-204.4-3268.6,292C1835.2-3348.7,972.8-2289.7,655.4-1053.5c-112.9,438-138.2,650.2-138.2,1166.1c0,576.2,48.7,903.3,206.4,1393.9C1292,3283.9,2898.1,4504.5,4790.4,4596C4996.7,4607.6,5368.5,4590.1,5608,4559z"
       id="path4" /><path
       d="M4751.4,4050.9c-589.9-56.4-1012.3-171.3-1485.4-406.9C2532.1,3280,1915,2688.1,1514,1960.1c-161.6-288.1-364-852.7-364-1008.4c0-75.9,37-146,97.3-177.2c25.3-13.6,403-19.5,1107.7-19.5h1068.8L3377,609c-68.1-214.2-91.5-403-77.9-607.4l11.7-177.1l-149.9,62.3c-284.2,120.7-554.8,179.1-915,198.6c-360.1,19.5-994.8-54.5-1096-126.5c-95.4-68.1-103.2-114.9-68.1-367.9c229.7-1600.2,1401.7-2910.4,2964.9-3315.3c266.7-68.1,346.5-70.1,418.6-11.7c70.1,54.5,83.7,120.7,111,519.8c38.9,552.9-21.4,1171.9-155.7,1613.8c-33.1,112.9-33.1,122.6-3.9,112.9c257-83.7,334.8-97.3,578.2-97.3c237.5,0,416.6,29.2,578.2,93.5c29.2,11.7,29.2,5.8,3.9-81.8c-44.8-146-99.3-406.9-128.5-609.3c-33.1-235.6-33.1-1035.7,0-1281c27.3-196.6,54.5-257,132.4-292c72-35,132.4-29.2,369.9,33.1c556.8,146,1074.6,406.8,1506.8,755.3c173.3,140.2,539.3,513.9,663.8,677.5c418.6,549,693.1,1195.3,786.5,1855.2c31.1,221.9,31.1,247.3,3.9,307.6c-46.7,95.4-101.2,122.6-356.3,167.4c-190.8,35.1-307.6,42.8-660,42.8c-373.8,0-453.6-3.9-632.7-42.8c-163.5-37-393.2-114.9-554.8-190.8c-11.7-5.8-19.5,95.4-21.4,278.4c0,258.9-5.8,303.7-52.6,443.9c-29.2,85.7-52.6,161.6-52.6,171.3c0,7.8,478.9,13.6,1064.9,13.6c1014.2-2,1066.8,0,1113.5,35c85.6,62.3,109,132.4,79.8,245.3c-257,1027.9-938.3,1933.1-1863,2476.3C6312.7,3902.9,5430.8,4117.1,4751.4,4050.9z M5510.6,3607c1279-183,2326.4-1025.9,2793.6-2248.5c37-99.3,68.1-183,68.1-186.9c0-3.9-463.3-7.8-1029.8-7.8H6310.8l-50.6,68.1c-70.1,91.5-286.2,262.8-447.8,360.1c-75.9,42.8-220,105.1-321.2,138.2c-231.7,75.9-584,97.3-809.8,50.6c-315.4-68.1-593.8-218-846.8-457.5l-169.4-159.6l-1022,3.9l-1022,5.8l95.4,243.3c478.9,1205,1541.8,2034.4,2820.8,2197.9C4751.4,3642.1,5290.7,3638.2,5510.6,3607z M5358.8,1350.7C5940.9,1193,6324.4,644.1,6283.5,25c-37-550.9-362.1-971.4-889.7-1150.5c-165.5-56.4-621-52.6-807.9,5.8c-586,184.9-944.2,763.1-864.4,1393.9c68.1,547,453.6,975.3,981.2,1092.1C4868.2,1403.3,5195.3,1395.5,5358.8,1350.7z M2442.6-335.2c930.6-107.1,1469.8-679.4,1670.3-1771.6c56.5-311.5,75.9-1179.7,27.3-1199.2c-50.6-19.5-447.8,118.7-702.8,243.3c-332.9,161.6-613.2,356.2-879.9,611.2c-453.6,436.1-733.9,881.9-920.8,1464c-54.5,175.2-136.3,519.8-136.3,584C1500.3-339.1,2099.9-296.2,2442.6-335.2z M8236.1-335.2c247.2-29.2,253.1-31.2,253.1-93.5c0-29.2-17.5-130.4-38.9-227.8c-268.7-1216.7-1133-2182.3-2306.9-2577.5c-128.5-44.8-247.2-79.8-264.7-79.8c-48.7,0-68.1,465.3-37,837.1c103.2,1269.3,617.1,1974,1553.5,2131.7C7580-313.8,8014.2-309.9,8236.1-335.2z"
       id="path6" /></g></g>
</svg>
