<?xml version="1.0" standalone="no"?>
<svg xmlns:xlink="http://www.w3.org/1999/xlink" id="wave" style="transform:rotate(180deg); transition: 0.3s" viewBox="0 0 1440 160" version="1.1" xmlns="http://www.w3.org/2000/svg"><defs><linearGradient id="sw-gradient-0" x1="0" x2="0" y1="1" y2="0"><stop stop-color="rgba(194, 120, 3, 1)" offset="0%"/><stop stop-color="rgba(255, 226.343, 11, 1)" offset="100%"/></linearGradient></defs><path style="transform:translate(0, 0px); opacity:1" fill="url(#sw-gradient-0)" d="M0,0L48,16C96,32,192,64,288,72C384,80,480,64,576,50.7C672,37,768,27,864,40C960,53,1056,91,1152,101.3C1248,112,1344,96,1440,85.3C1536,75,1632,69,1728,66.7C1824,64,1920,64,2016,74.7C2112,85,2208,107,2304,106.7C2400,107,2496,85,2592,66.7C2688,48,2784,32,2880,42.7C2976,53,3072,91,3168,106.7C3264,123,3360,117,3456,96C3552,75,3648,37,3744,18.7C3840,0,3936,0,4032,0C4128,0,4224,0,4320,18.7C4416,37,4512,75,4608,90.7C4704,107,4800,101,4896,101.3C4992,101,5088,107,5184,114.7C5280,123,5376,133,5472,133.3C5568,133,5664,123,5760,106.7C5856,91,5952,69,6048,74.7C6144,80,6240,112,6336,114.7C6432,117,6528,91,6624,69.3C6720,48,6816,32,6864,24L6912,16L6912,160L6864,160C6816,160,6720,160,6624,160C6528,160,6432,160,6336,160C6240,160,6144,160,6048,160C5952,160,5856,160,5760,160C5664,160,5568,160,5472,160C5376,160,5280,160,5184,160C5088,160,4992,160,4896,160C4800,160,4704,160,4608,160C4512,160,4416,160,4320,160C4224,160,4128,160,4032,160C3936,160,3840,160,3744,160C3648,160,3552,160,3456,160C3360,160,3264,160,3168,160C3072,160,2976,160,2880,160C2784,160,2688,160,2592,160C2496,160,2400,160,2304,160C2208,160,2112,160,2016,160C1920,160,1824,160,1728,160C1632,160,1536,160,1440,160C1344,160,1248,160,1152,160C1056,160,960,160,864,160C768,160,672,160,576,160C480,160,384,160,288,160C192,160,96,160,48,160L0,160Z"/></svg>